<?xml version="1.0" encoding="utf-8"?>
<!-- Generator: Adobe Illustrator 27.0.0, SVG Export Plug-In . SVG Version: 6.00 Build 0)  -->
<svg version="1.1" id="b" xmlns="http://www.w3.org/2000/svg" xmlns:xlink="http://www.w3.org/1999/xlink" x="0px" y="0px"
	 viewBox="0 0 800 800" style="enable-background:new 0 0 800 800;" xml:space="preserve">
<style type="text/css">
	
		.st0{display:none;fill:none;stroke:#000000;stroke-width:16.6667;stroke-linecap:round;stroke-linejoin:round;stroke-miterlimit:66.6667;}
	.st1{fill:none;stroke:#000000;stroke-width:24;stroke-linecap:round;stroke-linejoin:round;stroke-miterlimit:66.6667;}
</style>
<g>
	<path class="st0" d="M422,179.8c0,48.7-39.4,88.1-88.1,88.1s-88.1-39.4-88.1-88.1s39.4-88.1,88.1-88.1S422,131.1,422,179.8z"/>
	<path class="st0" d="M620.2,400c0,48.7-39.4,88.1-88.1,88.1c-48.7,0-88.1-39.4-88.1-88.1s39.4-88.1,88.1-88.1
		C580.8,311.9,620.2,351.3,620.2,400z"/>
</g>
<path class="st1" d="M417,624.3c0,26.5-21.5,48-48,48s-48-21.5-48-48s21.5-48,48-48C395.5,576.2,417,597.7,417,624.3L417,624.3z"/>
<path class="st1" d="M569.7,400c0,26.5-21.5,48-48,48s-48-21.5-48-48s21.5-48,48-48S569.7,373.5,569.7,400L569.7,400z"/>
<path class="st1" d="M329.9,175.7c0,26.5-21.5,48-48,48s-48-21.5-48-48s21.5-48,48-48S329.9,149.2,329.9,175.7L329.9,175.7z"/>
<line class="st1" x1="417" y1="620.2" x2="697.3" y2="620.2"/>
<line class="st1" x1="102.7" y1="620.2" x2="311.9" y2="620.2"/>
<line class="st1" x1="569.7" y1="400" x2="697.3" y2="400"/>
<line class="st1" x1="102.7" y1="400" x2="461.1" y2="400"/>
<line class="st1" x1="329.9" y1="179.8" x2="697.3" y2="179.8"/>
<line class="st1" x1="102.7" y1="179.8" x2="233.8" y2="179.8"/>
</svg>
