<?xml version="1.0" encoding="utf-8"?>
<!-- Generator: Adobe Illustrator 27.0.0, SVG Export Plug-In . SVG Version: 6.00 Build 0)  -->
<svg version="1.1" id="Layer_1" xmlns="http://www.w3.org/2000/svg" xmlns:xlink="http://www.w3.org/1999/xlink" x="0px" y="0px"
	 viewBox="0 0 168 183.5" style="enable-background:new 0 0 168 183.5;" xml:space="preserve">
<style type="text/css">
	.st0{fill:#E576B9;}
	.st1{display:none;fill:#FEFBFD;}
	.st2{display:none;fill:#E679BB;}
	.st3{fill:#E679BB;}
</style>
<path class="st0" d="M89.7,0.1c6.6,2.4,13,4.3,18.8,7.4c13.2,7.1,26.2,14.6,39,22.4c13.7,8.4,20.5,20.9,20.5,37
	c0,15.7,0.1,31.3,0,47c-0.1,15.7-6.8,28.1-20.2,36.2c-14.5,8.9-29.1,17.5-44.1,25.5c-13.6,7.2-27.6,6.8-41.1-0.8
	c-13.2-7.4-26.3-15.1-39.4-22.7c-15.5-8.9-23.4-22.1-23.3-40.1c0.2-15.3-0.1-30.7,0.1-46c0.1-15.3,6.7-27.5,19.6-35.5
	c14.7-9.1,29.9-17.4,44.9-26.1C72.2-0.1,80.7-0.2,89.7,0.1 M82.9,49.9c-4.5,1.3-7.4,7.4-11.6,16.6c-0.5,1-1.5,3.3-3.8,4.7
	c-1.3,0.8-2.5,1.1-3.7,1.3c-5.8,1.1-7.3,0.4-10.9,0.7c-6.8,0.6-11,6.3-8.6,12.6c1.2,3,3.9,5.9,6.6,7.7c5.8,4,7.6,7.4,8,9.8
	c0.6,3.8-1.3,8.8-2,10.7c-0.3,0.8-0.8,1.9-1.1,3.6c-0.4,2-0.8,4,0,6.4c0.7,2,2,3.7,4,5c3.6,2.6,7.6,1.8,11.2-0.6
	c3.2-2.1,6.5-4.1,9.4-6.5c2.6-2.1,4.6-1.7,7.1,0c3.7,2.6,7.4,5,11.2,7.4c3.5,2.2,7.1,1.6,10.2-0.8c1.8-1.4,3-3,3.5-4.9
	c0.2-0.8,0.4-2-0.1-4.8c-0.7-3.9-1.7-4.7-2.9-8.9c-1-3.5-1.7-5.9-0.7-8.3c0.2-0.4,0.3-0.7,0.3-0.8c1.1-2.4,2.8-3.8,3.6-4.4
	c5.4-4.2,8.9-5.7,10.8-9.3c0.5-0.9,0.7-1.6,0.8-2.2c0.6-2.8-0.4-5.2-0.7-6c-0.7-1.7-1.8-3.1-3.1-4c-1.3-0.9-2.7-1.5-5.9-1.8
	c-7.1-0.8-8.9,0.6-12.4-1c-2.3-1-3.7-2.6-4.4-3.4c-3-3.5-2.4-5.5-4.7-11.5c-1.2-3-3.2-6.4-6.6-7.3C84.7,49.4,83.2,49.8,82.9,49.9z"
	/>
<path class="st1" d="M76.4,53.7c7.1-6.5,13.5-5.1,16.7,3.5c1.5,3.9,2.8,7.8,4.7,11.5c0.8,1.5,2.7,3.1,4.4,3.4
	c4.1,0.7,8.3,0.9,12.4,1c4.3,0.1,7.4,2.1,9,5.9c1.7,4,1,7.9-2.3,11c-3.1,3-6.4,5.9-9.9,8.4c-2.9,2.1-3.6,4.2-2.5,7.5
	c1.4,4.3,2.2,8.7,3.4,13c1.1,4.1-0.4,7.3-3.5,9.7c-3.1,2.4-6.7,3-10.2,0.8c-3.8-2.4-7.5-4.8-11.2-7.4c-2.4-1.7-4.5-2.2-7.1,0
	c-2.9,2.4-6.2,4.4-9.4,6.5c-3.6,2.4-7.6,3.1-11.2,0.6c-3.8-2.7-5.4-6.6-4-11.4c0.6-1.9,0.5-4.1,1.4-5.8c4.3-8.5,0.4-13.6-6.4-18.3
	c-2.7-1.9-5.4-4.7-6.6-7.7c-2.5-6.3,1.8-12,8.6-12.6c3.6-0.3,7.3-1,10.9-0.7c4.8,0.4,6.3-2.1,7.5-6C72.6,62.2,74.5,58.1,76.4,53.7
	 M94.6,116c2.7,1.8,5.4,3.6,9.3,6.1c-1.6-6.7-2.7-12.1-4.4-17.4c-1.5-4.9-0.3-8.2,3.8-11.1c4.2-3.1,7.9-6.7,13-11.1
	c-7.1-0.5-12.5-1.1-17.9-1.1c-4,0-6.4-1.3-7.7-5.4c-1.8-5.6-4.2-10.9-6.8-17.7c-2.3,6.4-4.3,11.4-6,16.6c-1.5,4.4-3.9,6.9-9.1,6.7
	c-5.2-0.2-10.4,0.6-17,1.1c5.2,4.6,9.1,8.5,13.4,11.6c4,2.9,4.5,6.1,3.3,10.4c-1.5,5.3-2.8,10.7-4.5,17.4c4-2.5,7-4,9.4-6.2
	C80.3,109.4,87.1,108.3,94.6,116z"/>
<path class="st2" d="M115.9,99"/>
<path class="st3" d="M52.5,83.3c7.7-0.2,15.5-0.4,23.2-0.5c2.7-7.6,5.5-15.2,8.2-22.7c2.8,7.5,5.5,15,8.3,22.5
	c7.5,0.2,15.1,0.4,22.6,0.5c-6,5.2-11.9,10.3-17.9,15.5c2,7.8,4.1,15.7,6.1,23.5c-6.5-4.4-13-8.8-19.5-13.3
	c-6.5,4.3-13,8.6-19.5,12.8c2.1-7.8,4.2-15.6,6.2-23.4C64.4,93.3,58.5,88.3,52.5,83.3z"/>
<path class="st3" d="M104,90.8"/>
<path class="st0" d="M194.3,67.4"/>
</svg>
