<?xml version="1.0" encoding="utf-8"?>
<!-- Generator: Adobe Illustrator 27.0.0, SVG Export Plug-In . SVG Version: 6.00 Build 0)  -->
<svg version="1.1" id="layer" xmlns="http://www.w3.org/2000/svg" xmlns:xlink="http://www.w3.org/1999/xlink" x="0px" y="0px"
	 viewBox="0 0 652 166.3" style="enable-background:new 0 0 652 166.3;" xml:space="preserve">
<style type="text/css">
	.st0{fill:#14A800;}
</style>
<path class="st0" d="M191.5,113.2c-12.6-0.7-24.1-7.5-30.8-18.2c4-31.7,15.6-41.6,30.9-41.6s27,11.9,27,29.7s-11.9,29.7-27,29.7
	 M191.6,33.6c-22.3-0.9-42.1,14.3-46.9,36.1c-5.1-10.7-8.9-21.9-11.5-33.4H95.4v46.9c0,17-7.7,29.7-22.9,29.7s-23.8-12.6-23.8-29.7
	V36.3H27v46.9c-0.5,13,4,25.7,12.5,35.5c8.4,9.2,20.4,14.3,32.9,14c26.2,0,44.5-20.1,44.5-48.9V52.1c4.4,17.1,11.8,33.2,21.7,47.8
	L127,166.3h22.1l7.7-47c2.5,2.2,5.2,4.2,8.1,5.9c7.4,4.7,15.9,7.3,24.6,7.6h2c26.6,0.3,48.3-21,48.6-47.6c0-0.7,0-1.4,0-2
	c0.6-26.6-20.5-48.7-47.1-49.3c-0.5,0-1,0-1.6,0 M504,46.6v-10h-21.4v92.8h21.7V93.1c0-22.4,2-38.5,32.1-36.4V35.6
	C522.4,34.5,511.4,37.4,504,46.6 M353.8,36.6l-15.7,65l-16.7-65h-27.6l-16.7,65l-15.7-65h-21.9l24.1,92.9h26l18.1-66l17.9,66h26
	L377,36.6H353.8z M424.5,113.2c-15.4,0-26.9-12.2-26.9-29.7s11.9-29.7,26.9-29.7s27.2,11.5,27.2,29.3s-11.9,29.7-27,29.7
	 M424.8,33.5c-26.6-0.4-48.4,20.9-48.8,47.4c0,0.7,0,1.4,0,2.2c-0.9,26.8,20,49.3,46.9,50.3c26.8,0.9,49.3-20,50.3-46.9
	c0-1.1,0-2.3,0-3.4c0.7-26.6-20.4-48.7-47-49.3c-0.5,0-1.1,0-1.6,0 M567.4,83.9h5l30.2,45.7H627l-34.7-50.7
	c17.1-7,28.2-23.7,28.2-42.2h-21.6c0,20-15.8,27.6-31.5,27.6V0h-21.7v129.6h21.6L567.4,83.9z"/>
</svg>
