<?xml version="1.0" encoding="utf-8"?>
<!-- Generator: Adobe Illustrator 27.0.0, SVG Export Plug-In . SVG Version: 6.00 Build 0)  -->
<svg version="1.1"
	 id="svg2" xmlns:svg="http://www.w3.org/2000/svg" xmlns:cc="http://creativecommons.org/ns#" xmlns:rdf="http://www.w3.org/1999/02/22-rdf-syntax-ns#" xmlns:dc="http://purl.org/dc/elements/1.1/"
	 xmlns="http://www.w3.org/2000/svg" xmlns:xlink="http://www.w3.org/1999/xlink" x="0px" y="0px" viewBox="0 0 400 400"
	 style="enable-background:new 0 0 400 400;" xml:space="preserve">
<style type="text/css">
	.st0{fill:#032A00;}
	.st1{fill:#333333;}
	.st2{fill:none;stroke:#000000;stroke-width:3.562;}
	.st3{fill:url(#path3193_00000049209997294936313100000004700030700878115743_);}
	.st4{fill:url(#path3193_00000094611893240043492660000000051504046347735739_);}
	.st5{fill:none;stroke:#000000;stroke-width:3;}
	.st6{fill:url(#path3223_00000137090887438495228000000006584436174848970931_);}
	.st7{opacity:0.7426;fill:#FFFFFF;enable-background:new    ;}
	.st8{fill:url(#path3193_00000125584516817047085990000005801020364629938097_);}
</style>
<path id="path3191_00000062163979256923589230000012845818151984439480_" class="st0" d="M200,15C97.9,15,15,97.9,15,200
	s82.9,185,185,185s185-82.9,185-185S302.1,15,200,15z M200,194.8c2.9,0,5.2,2.3,5.2,5.2s-2.3,5.2-5.2,5.2s-5.2-2.3-5.2-5.2
	S197.1,194.8,200,194.8z"/>
<path id="path3271" class="st1" d="M200,132.7c-37.2,0-67.3,30.2-67.3,67.3s30.2,67.3,67.3,67.3s67.3-30.2,67.3-67.3
	S237.2,132.7,200,132.7z M200,195.6c2.5,0,4.4,2,4.4,4.4s-2,4.4-4.4,4.4s-4.4-2-4.4-4.4S197.5,195.6,200,195.6z"/>
<path id="path3176" class="st2" d="M200,16.8c101.2,0,183.2,82.1,183.2,183.2c0,101.2-82.1,183.2-183.2,183.2S16.8,301.2,16.8,200
	S98.8,16.8,200,16.8z"/>
<g id="use3151" transform="rotate(180,200,200)">
	
		<radialGradient id="path3193_00000057832597788315344950000015050243053486140833_" cx="19.3846" cy="-368.9874" r="92.5013" gradientTransform="matrix(-0.8696 0.8696 -1.9615 -1.9615 -325.4791 -359.1928)" gradientUnits="userSpaceOnUse">
		<stop  offset="0" style="stop-color:#FFFFFF"/>
		<stop  offset="1" style="stop-color:#FFFFFF;stop-opacity:0"/>
	</radialGradient>
	<path id="path3193" style="fill:url(#path3193_00000057832597788315344950000015050243053486140833_);" d="M293.6,200
		c0,51.7-41.9,93.6-93.6,93.6v87.8c100.1,0,181.4-81.3,181.4-181.4L293.6,200L293.6,200z"/>
</g>
<radialGradient id="path3193_00000095322596371124989810000014403362648336923544_" cx="135.2097" cy="-276.6939" r="92.5026" gradientTransform="matrix(-0.8696 0.8696 -1.9615 -1.9615 -406.5873 -641.7441)" gradientUnits="userSpaceOnUse">
	<stop  offset="0" style="stop-color:#FFFFFF"/>
	<stop  offset="1" style="stop-color:#FFFFFF;stop-opacity:0"/>
</radialGradient>
<path id="path3193_00000123423196807650400090000018230838865495532464_" style="fill:url(#path3193_00000095322596371124989810000014403362648336923544_);" d="
	M106.4,200c0-51.7,41.9-93.6,93.6-93.6V18.6C99.9,18.6,18.6,99.9,18.6,200H106.4z"/>
<path id="path3215" class="st5" d="M200,132.7c37.2,0,67.3,30.1,67.3,67.3s-30.1,67.3-67.3,67.3s-67.3-30.1-67.3-67.3
	S162.8,132.7,200,132.7z"/>
<radialGradient id="path3223_00000033362947678802289460000009670373091495628200_" cx="78.8104" cy="-389.1874" r="53.7237" gradientTransform="matrix(0 2.8729 -1 0 -189.1562 -26.4831)" gradientUnits="userSpaceOnUse">
	<stop  offset="0" style="stop-color:#F7F7F7"/>
	<stop  offset="1" style="stop-color:#E1E1E1"/>
</radialGradient>
<path id="path3223" style="fill:url(#path3223_00000033362947678802289460000009670373091495628200_);" d="M238,162
	c-21-21-55-21-75.9,0s-21,55,0,75.9s55,21,75.9,0S258.9,183,238,162L238,162z M203.7,196.3c2,2,2,5.3,0,7.3s-5.3,2-7.3,0
	s-2-5.3,0-7.3S201.6,194.3,203.7,196.3z"/>
<path id="path3230" class="st7" d="M244,156c-7.1-7.1-15.4-12.1-24.3-15l-1.2,3.7c8.3,2.8,16.1,7.5,22.7,14.1
	c8.1,8.1,13.3,17.9,15.6,28.2l3.8-0.9C258.1,175.2,252.6,164.7,244,156L244,156z"/>
<path id="path3232" class="st7" d="M142.6,190.3l-3.9-0.7c-3.2,19.2,2.5,39.6,17.3,54.4c14.7,14.7,35.1,20.5,54.2,17.3l-0.6-3.9
	c-17.9,3-37-2.4-50.8-16.3C145,227.3,139.6,208.2,142.6,190.3z"/>
<radialGradient id="path3193_00000013157571936474376400000011869218523902259630_" cx="-332.6081" cy="387.5185" r="92.4955" gradientTransform="matrix(0.9777 -0.746 1.6827 2.2054 29.3341 -698.5648)" gradientUnits="userSpaceOnUse">
	<stop  offset="0" style="stop-color:#FFFFFF"/>
	<stop  offset="1" style="stop-color:#FFFFFF;stop-opacity:0"/>
</radialGradient>
<path id="path3193_00000031889693626239926530000011814471886196924854_" style="fill:url(#path3193_00000013157571936474376400000011869218523902259630_);" d="
	M293.3,212.7c-6.9,51.2-54,87.2-105.2,80.3l-11.7,87c99.2,13.3,190.6-56.4,204-155.6L293.3,212.7z"/>
</svg>
