<?xml version="1.0" encoding="utf-8"?>
<!-- Generator: Adobe Illustrator 27.0.0, SVG Export Plug-In . SVG Version: 6.00 Build 0)  -->
<svg version="1.1"
	 id="svg2" xmlns:svg="http://www.w3.org/2000/svg" xmlns:cc="http://creativecommons.org/ns#" xmlns:rdf="http://www.w3.org/1999/02/22-rdf-syntax-ns#" xmlns:dc="http://purl.org/dc/elements/1.1/"
	 xmlns="http://www.w3.org/2000/svg" xmlns:xlink="http://www.w3.org/1999/xlink" x="0px" y="0px" viewBox="0 0 400 400"
	 style="enable-background:new 0 0 400 400;" xml:space="preserve">
<style type="text/css">
	.st0{fill:#3F1E00;}
	.st1{fill:#333333;}
	.st2{fill:none;stroke:#000000;stroke-width:3.562;}
	.st3{fill:url(#path3193_00000038407981516180173260000005954001341432430737_);}
	.st4{fill:url(#path3193_00000170992527233290025740000009060304159525187980_);}
	.st5{fill:none;stroke:#000000;stroke-width:3;}
	.st6{fill:url(#path3223_00000177461972401575217730000002545450742562190727_);}
	.st7{opacity:0.7426;fill:#FFFFFF;enable-background:new    ;}
	.st8{fill:url(#path3193_00000147201016376594801420000003252001727596657599_);}
</style>
<path id="path3191_00000062163979256923589230000012845818151984439480_" class="st0" d="M200,15C97.9,15,15,97.9,15,200
	s82.9,185,185,185s185-82.9,185-185S302.1,15,200,15z M200,194.8c2.9,0,5.2,2.3,5.2,5.2s-2.3,5.2-5.2,5.2s-5.2-2.3-5.2-5.2
	S197.1,194.8,200,194.8z"/>
<path id="path3271" class="st1" d="M200,132.7c-37.2,0-67.3,30.2-67.3,67.3s30.2,67.3,67.3,67.3s67.3-30.2,67.3-67.3
	S237.2,132.7,200,132.7z M200,195.6c2.5,0,4.4,2,4.4,4.4s-2,4.4-4.4,4.4s-4.4-2-4.4-4.4S197.5,195.6,200,195.6z"/>
<path id="path3176" class="st2" d="M200,16.8c101.2,0,183.2,82.1,183.2,183.2c0,101.2-82.1,183.2-183.2,183.2S16.8,301.2,16.8,200
	S98.8,16.8,200,16.8z"/>
<g id="use3151" transform="rotate(180,200,200)">
	
		<radialGradient id="path3193_00000104679081767084520040000009896799908636967329_" cx="691.5068" cy="-788.4756" r="92.5013" gradientTransform="matrix(0.8696 -0.8696 -1.9615 -1.9615 -1766.4966 -563.8278)" gradientUnits="userSpaceOnUse">
		<stop  offset="0" style="stop-color:#FFFFFF"/>
		<stop  offset="1" style="stop-color:#FFFFFF;stop-opacity:0"/>
	</radialGradient>
	<path id="path3193" style="fill:url(#path3193_00000104679081767084520040000009896799908636967329_);" d="M293.6,200
		c0,51.7-41.9,93.6-93.6,93.6v87.8c100.1,0,181.4-81.3,181.4-181.4L293.6,200L293.6,200z"/>
</g>
<radialGradient id="path3193_00000093149704508636695890000003847569339105624224_" cx="58.1012" cy="1140.765" r="92.5026" gradientTransform="matrix(-0.8696 0.8696 1.9615 1.9615 -2168.5164 -2269.5659)" gradientUnits="userSpaceOnUse">
	<stop  offset="0" style="stop-color:#FFFFFF"/>
	<stop  offset="1" style="stop-color:#FFFFFF;stop-opacity:0"/>
</radialGradient>
<path id="path3193_00000123423196807650400090000018230838865495532464_" style="fill:url(#path3193_00000093149704508636695890000003847569339105624224_);" d="
	M106.4,200c0-51.7,41.9-93.6,93.6-93.6V18.6C99.9,18.6,18.6,99.9,18.6,200H106.4z"/>
<path id="path3215" class="st5" d="M200,132.7c37.2,0,67.3,30.1,67.3,67.3s-30.1,67.3-67.3,67.3s-67.3-30.1-67.3-67.3
	S162.8,132.7,200,132.7z"/>
<radialGradient id="path3223_00000051372040140021460490000017718631898546515074_" cx="18.5877" cy="1301.0773" r="53.7237" gradientTransform="matrix(0 2.8729 1 0 -1101.046 146.5308)" gradientUnits="userSpaceOnUse">
	<stop  offset="0" style="stop-color:#F7F7F7"/>
	<stop  offset="1" style="stop-color:#E1E1E1"/>
</radialGradient>
<path id="path3223" style="fill:url(#path3223_00000051372040140021460490000017718631898546515074_);" d="M238,162
	c-21-21-55-21-75.9,0s-21,55,0,75.9s55,21,75.9,0S258.9,183,238,162L238,162z M203.7,196.3c2,2,2,5.3,0,7.3s-5.3,2-7.3,0
	s-2-5.3,0-7.3S201.6,194.3,203.7,196.3z"/>
<path id="path3230" class="st7" d="M244,156c-7.1-7.1-15.4-12.1-24.3-15l-1.2,3.7c8.3,2.8,16.1,7.5,22.7,14.1
	c8.1,8.1,13.3,17.9,15.6,28.2l3.8-0.9C258.1,175.2,252.6,164.7,244,156L244,156z"/>
<path id="path3232" class="st7" d="M142.6,190.3l-3.9-0.7c-3.2,19.2,2.5,39.6,17.3,54.4c14.7,14.7,35.1,20.5,54.2,17.3l-0.6-3.9
	c-17.9,3-37-2.4-50.8-16.3C145,227.3,139.6,208.2,142.6,190.3z"/>
<radialGradient id="path3193_00000018211275127810456900000007549008433094682012_" cx="-762.5079" cy="-20.27" r="92.4955" gradientTransform="matrix(0.9777 -0.746 -1.6827 -2.2054 1067.6161 -209.3404)" gradientUnits="userSpaceOnUse">
	<stop  offset="0" style="stop-color:#FFFFFF"/>
	<stop  offset="1" style="stop-color:#FFFFFF;stop-opacity:0"/>
</radialGradient>
<path id="path3193_00000031889693626239926530000011814471886196924854_" style="fill:url(#path3193_00000018211275127810456900000007549008433094682012_);" d="
	M293.3,212.7c-6.9,51.2-54,87.2-105.2,80.3l-11.7,87c99.2,13.3,190.6-56.4,204-155.6L293.3,212.7z"/>
</svg>
